<?xml version="1.0" encoding="utf-8"?>
<!-- Svg Vector Icons : http://www.onlinewebfonts.com/icon -->
<!DOCTYPE svg PUBLIC "-//W3C//DTD SVG 1.1//EN" "http://www.w3.org/Graphics/SVG/1.1/DTD/svg11.dtd">
<svg version="1.1" xmlns="http://www.w3.org/2000/svg" xmlns:xlink="http://www.w3.org/1999/xlink" x="0px" y="0px" viewBox="0 0 256 256" enable-background="new 0 0 256 256" xml:space="preserve">
<metadata> Svg Vector Icons : http://www.onlinewebfonts.com/icon </metadata>
<g><g><g><path fill="#a2a186" d="M60.9,29L42,47.9l0.1,90.8l0.1,90.8l1.6,3.3c3,6.4,9.3,11.4,15.8,12.6c3.6,0.7,133.6,0.7,137.2,0c6.5-1.2,12.7-6.2,15.8-12.6l1.6-3.3V128V26.4l-1.6-3.3c-3-6.4-9.3-11.4-15.8-12.6C195,10.2,173.2,10,137,10H79.9L60.9,29z M196.3,20.4c2.8,0.8,6.5,4.3,7.6,7.1c0.8,2.2,0.9,6.7,0.9,100.5c0,93.8,0,98.3-0.9,100.5c-1.1,2.8-4.8,6.3-7.6,7.1c-2.8,0.8-133.5,0.8-136.3,0c-2.6-0.8-6.4-4.3-7.5-6.9c-0.9-2-0.9-5.5-1.1-91.4l-0.1-89.2h14.4h14.4V34V19.8h57.1C179.9,19.8,194.8,19.9,196.3,20.4z"/><path fill="#a2a186" d="M140.3,36.4c-6,1-11,5.1-13.3,10.7c-1,2.4-1.1,3.7-1.1,9.4c0,7.4,0.6,9.9,3.5,13.9c4.1,5.6,12.6,7.5,21.9,4.9l2.8-0.8v-3.4c0-3.3,0-3.4-1.1-3.1c-9.7,2.8-15,1.8-17.6-3.5c-1-2-1.1-3.1-1.2-7.7c0-4.8,0.1-5.7,1.3-8.2c1.8-3.9,4.3-5.5,8.4-5.4c1.9,0,4,0.4,5.6,1.1c1.4,0.5,2.7,1,2.9,1s0.9-1.4,1.5-3c1.1-2.8,1.1-3,0.3-3.6C152,36.9,144.3,35.7,140.3,36.4z"/><path fill="#a2a186" d="M157.7,37.8c0.2,0.4,2.8,8.2,5.9,17.2c3.1,9.1,5.9,17.5,6.4,18.8l0.8,2.4l4.5-0.1l4.5-0.1l6.5-19.1c3.6-10.5,6.5-19.2,6.5-19.4c0-0.2-1.8-0.4-4.1-0.4h-4.1l-4.3,13.6c-2.4,7.5-4.4,14.6-4.6,15.8c-0.4,2.4-0.8,2-1.4-1.2c-0.3-1.8-4.1-14.1-7.4-24.4l-1.3-3.8h-4.2C157.8,36.9,157.4,37,157.7,37.8z"/><path fill="#a2a186" d="M67.3,103.9c-1.1,1.2-1.2,8.5-0.1,9.4c1.1,0.9,121.8,0.9,122.9,0c1.2-1,1-8.4-0.1-9.4c-0.8-0.8-5.8-0.8-61.4-0.8C70.5,103,68,103.1,67.3,103.9z"/><path fill="#a2a186" d="M67.5,130.7c-1,0.7-1.1,1.2-1.1,4.8c0,3.7,0.1,4.2,1.1,4.8c1,0.7,7.6,0.8,61.1,0.8c53.5,0,60.1-0.1,61.1-0.8c1-0.7,1.1-1.2,1.1-4.8c0-3.7-0.1-4.2-1.1-4.8c-1-0.7-7.6-0.8-61.1-0.8C75.1,129.9,68.5,130,67.5,130.7z"/><path fill="#a2a186" d="M67.5,157.7c-1,0.7-1.1,1.2-1.1,4.8c0,3.7,0.1,4.2,1.1,4.8c1,0.7,7.6,0.8,61.1,0.8c53.5,0,60.1-0.1,61.1-0.8c1-0.7,1.1-1.2,1.1-4.8c0-3.7-0.1-4.2-1.1-4.8c-1-0.7-7.6-0.8-61.1-0.8C75.1,156.9,68.5,157,67.5,157.7z"/><path fill="#a2a186" d="M67,184.9c-0.9,0.9-0.8,8.5,0.2,9.4c0.7,0.7,6.9,0.8,61.3,0.8c70,0,62.2,0.7,62.2-5.7c0-2.4-0.2-4.2-0.6-4.5C189.4,184,67.9,184,67,184.9z"/><path fill="#a2a186" d="M67,211.8c-0.9,0.9-0.8,8.5,0.2,9.4c0.7,0.7,6.9,0.8,61.4,0.8c54.5,0,60.7-0.1,61.4-0.8c1-0.9,1.1-8.5,0.2-9.4C189.4,211,67.9,211,67,211.8z"/></g></g></g>
</svg>